<svg width="372" height="37" viewBox="0 0 372 37" fill="none" xmlns="http://www.w3.org/2000/svg">
<path d="M13.9043 0.896484C14.0801 0.767578 14.2676 0.685547 14.4668 0.650391L24.082 24.6621C24.1992 24.9551 24.3926 25.207 24.6621 25.418C24.9316 25.6172 25.2656 25.7754 25.6641 25.8926C26.0742 25.998 26.4258 26.0801 26.7188 26.1387C27.0234 26.1855 27.3926 26.2324 27.8262 26.2793C27.873 26.4668 27.8965 26.625 27.8965 26.7539C27.8965 26.8945 27.873 27.0234 27.8262 27.1406C25.2949 27.0469 23.4023 27 22.1484 27C20.7891 27 18.8203 27.0469 16.2422 27.1406C16.1953 27 16.1719 26.8594 16.1719 26.7188C16.1719 26.5664 16.1953 26.4199 16.2422 26.2793C18.6094 26.0215 19.793 25.5762 19.793 24.9434C19.793 24.7441 19.7695 24.5391 19.7227 24.3281L17.1738 17.7891C16.4004 17.7656 15.3574 17.7539 14.0449 17.7539C13.4238 17.7539 11.8125 17.7773 9.21094 17.8242L6.52148 24.6621V24.873C6.52148 24.9902 6.53906 25.1016 6.57422 25.207C6.62109 25.3125 6.69141 25.4062 6.78516 25.4883C6.89062 25.5703 6.99023 25.6406 7.08398 25.6992C7.17773 25.7578 7.30664 25.8164 7.4707 25.875C7.64648 25.9219 7.79297 25.9629 7.91016 25.998C8.03906 26.0215 8.20898 26.0508 8.41992 26.0859C8.64258 26.1211 8.8125 26.1504 8.92969 26.1738C9.04688 26.1855 9.2168 26.2031 9.43945 26.2266C9.67383 26.25 9.83789 26.2676 9.93164 26.2793C9.97852 26.4668 10.002 26.625 10.002 26.7539C10.002 26.8242 9.97852 26.9531 9.93164 27.1406C7.30664 27.0469 5.83008 27 5.50195 27C4.86914 27 3.24023 27.0469 0.615234 27.1406C0.568359 27 0.544922 26.8594 0.544922 26.7188C0.544922 26.5664 0.568359 26.4199 0.615234 26.2793C3.05273 25.998 4.44141 25.4004 4.78125 24.4863L12.3398 5.43164L11.9531 4.39453C12.6211 3.94922 13.084 3.46875 13.3418 2.95312C13.6113 2.4375 13.7988 1.75195 13.9043 0.896484ZM14.0449 16.3828C15.123 16.3828 15.9727 16.3711 16.5938 16.3477L13.2539 7.69922H13.1836L9.82617 16.3125C10.9277 16.3594 12.334 16.3828 14.0449 16.3828ZM27.4219 11.4082C28.9688 11.4785 30.5332 11.5137 32.1152 11.5137C33.5566 11.5137 35.0332 11.4785 36.5449 11.4082C36.5918 11.5957 36.6152 11.7422 36.6152 11.8477C36.6152 11.918 36.5918 12.0469 36.5449 12.2344C36.1934 12.2578 35.9121 12.2871 35.7012 12.3223C35.4902 12.3457 35.2148 12.3926 34.875 12.4629C34.5469 12.5332 34.2949 12.6387 34.1191 12.7793C33.9551 12.9199 33.873 13.0898 33.873 13.2891C33.873 13.3945 33.9199 13.6113 34.0137 13.9395L37.582 22.8164H37.6875L41.0801 13.9395C41.1973 13.6465 41.2559 13.3945 41.2559 13.1836C41.2559 12.6445 40.582 12.3281 39.2344 12.2344C39.1875 12.0469 39.1641 11.918 39.1641 11.8477C39.1641 11.7422 39.1875 11.5957 39.2344 11.4082C40.6055 11.4785 41.4609 11.5137 41.8008 11.5137C42.7852 11.5137 44.0332 11.4785 45.5449 11.4082C45.5918 11.5488 45.6152 11.6719 45.6152 11.7773C45.6152 11.8477 45.5918 12 45.5449 12.2344C44.0801 12.293 43.1309 12.8613 42.6973 13.9395L37.2656 26.9297H37.3008L35.3496 32.0449C34.623 33.9434 33.9434 35.2266 33.3105 35.8945C32.6895 36.5625 31.8926 36.8965 30.9199 36.8965C30.1348 36.8965 29.4785 36.6621 28.9512 36.1934C28.4355 35.7246 28.1777 35.1094 28.1777 34.3477C28.1777 33.6562 28.3711 33.1113 28.7578 32.7129C29.1445 32.3145 29.625 32.1152 30.1992 32.1152C30.7266 32.1152 31.1309 32.2734 31.4121 32.5898C31.7051 32.9062 31.8516 33.2637 31.8516 33.6621C31.8516 34.2246 31.5996 34.6699 31.0957 34.998C31.1543 35.2559 31.3477 35.3848 31.6758 35.3848C32.0508 35.3848 32.4023 35.168 32.7305 34.7344C33.0586 34.3125 33.4863 33.4043 34.0137 32.0098L35.9648 27L30.4805 13.9395C30.3516 13.6465 30.1699 13.3945 29.9355 13.1836C29.7012 12.9609 29.4141 12.791 29.0742 12.6738C28.7461 12.5449 28.4707 12.457 28.248 12.4102C28.0254 12.3516 27.75 12.293 27.4219 12.2344C27.375 12.1406 27.3516 12.0117 27.3516 11.8477C27.3516 11.6719 27.375 11.5254 27.4219 11.4082ZM47.8828 15.4512C47.8828 14.1621 48.4688 13.1016 49.6406 12.2695C50.8242 11.4375 52.2188 11.0215 53.8242 11.0215C55.793 11.0215 57.1758 11.4141 57.9727 12.1992C58.7812 12.9844 59.1855 14.3086 59.1855 16.1719V23.4668C59.1855 24.123 59.4258 24.4512 59.9062 24.4512C60.293 24.4512 60.7852 23.9824 61.3828 23.0449C61.8047 23.0801 62.0918 23.2676 62.2441 23.6074C62.1621 23.7246 62.0215 23.9355 61.8223 24.2402C61.623 24.5449 61.4766 24.7617 61.3828 24.8906C61.2891 25.0195 61.1426 25.2188 60.9434 25.4883C60.7441 25.7461 60.5801 25.9395 60.4512 26.0684C60.334 26.1973 60.1699 26.3496 59.959 26.5254C59.7598 26.7012 59.5723 26.8359 59.3965 26.9297C59.2324 27.0117 59.0391 27.082 58.8164 27.1406C58.5938 27.2109 58.3711 27.2461 58.1484 27.2461C57.5625 27.2461 57.0762 27.0352 56.6895 26.6133C56.3145 26.1914 56.0918 25.541 56.0215 24.6621C56.0098 24.6738 55.8281 24.8438 55.4766 25.1719C55.125 25.5 54.8789 25.7227 54.7383 25.8398C54.6094 25.9453 54.3574 26.1387 53.9824 26.4199C53.6191 26.6895 53.3086 26.8828 53.0508 27C52.793 27.1172 52.4707 27.2285 52.084 27.334C51.6973 27.4512 51.3164 27.5098 50.9414 27.5098C50.3438 27.5098 49.8105 27.4277 49.3418 27.2637C48.8848 27.0996 48.5273 26.9004 48.2695 26.666C48.0117 26.4316 47.8008 26.1621 47.6367 25.8574C47.4727 25.541 47.3613 25.2539 47.3027 24.9961C47.2559 24.7383 47.2324 24.4805 47.2324 24.2227C47.2324 23.4375 47.3613 22.7754 47.6191 22.2363C47.8887 21.6973 48.3809 21.1934 49.0957 20.7246C49.8223 20.2559 50.7129 19.8398 51.7676 19.4766C52.8223 19.1133 54.2402 18.7031 56.0215 18.2461V15.8027C56.0215 14.6191 55.7578 13.7344 55.2305 13.1484C54.7148 12.5625 54.0176 12.2695 53.1387 12.2695C52.3535 12.2695 51.6914 12.4277 51.1523 12.7441C50.625 13.0488 50.3027 13.4062 50.1855 13.8164C51.334 13.9922 51.9082 14.6191 51.9082 15.6973C51.9082 16.1895 51.7324 16.623 51.3809 16.998C51.0293 17.373 50.5371 17.5605 49.9043 17.5605C49.377 17.5605 48.9082 17.3789 48.498 17.0156C48.0879 16.6406 47.8828 16.1191 47.8828 15.4512ZM56.0215 23.0449V19.3711C54.9434 19.6172 54.0527 19.8867 53.3496 20.1797C52.6465 20.4609 52.1074 20.7715 51.7324 21.1113C51.3691 21.4512 51.1172 21.8027 50.9766 22.166C50.8359 22.5176 50.7656 22.9277 50.7656 23.3965C50.7656 23.9824 50.9355 24.4453 51.2754 24.7852C51.627 25.1133 52.0547 25.2773 52.5586 25.2773C53.7305 25.2773 54.8848 24.5332 56.0215 23.0449ZM69.4688 8.0332C69.5859 7.98633 69.7207 7.96289 69.873 7.96289C70.0254 7.96289 70.1836 7.98633 70.3477 8.0332V11.8828H75.6738C75.7441 12.0586 75.7793 12.2754 75.7793 12.5332C75.7793 12.7559 75.7441 12.9609 75.6738 13.1484H70.3477V22.5352C70.3477 24.3867 71.1973 25.3125 72.8965 25.3125C73.541 25.3125 74.0918 25.1895 74.5488 24.9434C75.0176 24.6973 75.5332 24.3281 76.0957 23.8359C76.3887 23.8711 76.582 24.0117 76.6758 24.2578C76.1602 25.1836 75.3984 25.957 74.3906 26.5781C73.3828 27.1992 72.2754 27.5098 71.0684 27.5098C68.2324 27.5098 66.8145 25.793 66.8145 22.3594V13.1484H64.6523C64.6055 12.9375 64.582 12.8027 64.582 12.7441C64.582 12.7324 64.6055 12.5977 64.6523 12.3398C65.2148 12.0586 65.6426 11.8301 65.9355 11.6543C66.2402 11.4668 66.6211 11.2031 67.0781 10.8633C67.5469 10.5234 67.9688 10.125 68.3438 9.66797C68.7305 9.19922 69.1055 8.6543 69.4688 8.0332ZM80.2266 15.4512C80.2266 14.1621 80.8125 13.1016 81.9844 12.2695C83.168 11.4375 84.5625 11.0215 86.168 11.0215C88.1367 11.0215 89.5195 11.4141 90.3164 12.1992C91.125 12.9844 91.5293 14.3086 91.5293 16.1719V23.4668C91.5293 24.123 91.7695 24.4512 92.25 24.4512C92.6367 24.4512 93.1289 23.9824 93.7266 23.0449C94.1484 23.0801 94.4355 23.2676 94.5879 23.6074C94.5059 23.7246 94.3652 23.9355 94.166 24.2402C93.9668 24.5449 93.8203 24.7617 93.7266 24.8906C93.6328 25.0195 93.4863 25.2188 93.2871 25.4883C93.0879 25.7461 92.9238 25.9395 92.7949 26.0684C92.6777 26.1973 92.5137 26.3496 92.3027 26.5254C92.1035 26.7012 91.916 26.8359 91.7402 26.9297C91.5762 27.0117 91.3828 27.082 91.1602 27.1406C90.9375 27.2109 90.7148 27.2461 90.4922 27.2461C89.9062 27.2461 89.4199 27.0352 89.0332 26.6133C88.6582 26.1914 88.4355 25.541 88.3652 24.6621C88.3535 24.6738 88.1719 24.8438 87.8203 25.1719C87.4688 25.5 87.2227 25.7227 87.082 25.8398C86.9531 25.9453 86.7012 26.1387 86.3262 26.4199C85.9629 26.6895 85.6523 26.8828 85.3945 27C85.1367 27.1172 84.8145 27.2285 84.4277 27.334C84.041 27.4512 83.6602 27.5098 83.2852 27.5098C82.6875 27.5098 82.1543 27.4277 81.6855 27.2637C81.2285 27.0996 80.8711 26.9004 80.6133 26.666C80.3555 26.4316 80.1445 26.1621 79.9805 25.8574C79.8164 25.541 79.7051 25.2539 79.6465 24.9961C79.5996 24.7383 79.5762 24.4805 79.5762 24.2227C79.5762 23.4375 79.7051 22.7754 79.9629 22.2363C80.2324 21.6973 80.7246 21.1934 81.4395 20.7246C82.166 20.2559 83.0566 19.8398 84.1113 19.4766C85.166 19.1133 86.584 18.7031 88.3652 18.2461V15.8027C88.3652 14.6191 88.1016 13.7344 87.5742 13.1484C87.0586 12.5625 86.3613 12.2695 85.4824 12.2695C84.6973 12.2695 84.0352 12.4277 83.4961 12.7441C82.9688 13.0488 82.6465 13.4062 82.5293 13.8164C83.6777 13.9922 84.252 14.6191 84.252 15.6973C84.252 16.1895 84.0762 16.623 83.7246 16.998C83.373 17.373 82.8809 17.5605 82.248 17.5605C81.7207 17.5605 81.252 17.3789 80.8418 17.0156C80.4316 16.6406 80.2266 16.1191 80.2266 15.4512ZM88.3652 23.0449V19.3711C87.2871 19.6172 86.3965 19.8867 85.6934 20.1797C84.9902 20.4609 84.4512 20.7715 84.0762 21.1113C83.7129 21.4512 83.4609 21.8027 83.3203 22.166C83.1797 22.5176 83.1094 22.9277 83.1094 23.3965C83.1094 23.9824 83.2793 24.4453 83.6191 24.7852C83.9707 25.1133 84.3984 25.2773 84.9023 25.2773C86.0742 25.2773 87.2285 24.5332 88.3652 23.0449ZM96.6445 1.72266C98.8711 1.51172 100.846 1.03125 102.568 0.28125C102.885 0.410156 103.09 0.568359 103.184 0.755859C103.184 14.0332 103.23 21.9785 103.324 24.5918C103.336 24.8379 103.406 25.0605 103.535 25.2598C103.676 25.4473 103.828 25.5996 103.992 25.7168C104.156 25.8223 104.379 25.9219 104.66 26.0156C104.941 26.0977 105.158 26.1562 105.311 26.1914C105.475 26.2148 105.691 26.2441 105.961 26.2793C106.031 26.4199 106.066 26.5664 106.066 26.7188C106.066 26.8711 106.031 27 105.961 27.1055C104.414 27.0352 102.914 27 101.461 27C100.031 27 98.543 27.0352 96.9961 27.1055C96.9492 26.918 96.9258 26.7891 96.9258 26.7188C96.9258 26.6602 96.9492 26.5137 96.9961 26.2793C97.3828 26.2324 97.6934 26.1855 97.9277 26.1387C98.1738 26.0801 98.4785 25.9922 98.8418 25.875C99.2168 25.7578 99.498 25.5938 99.6855 25.3828C99.873 25.1602 99.9727 24.8965 99.9844 24.5918C100.031 23.4316 100.055 20.8359 100.055 16.8047C100.055 14.9414 100.049 12.4043 100.037 9.19336C100.025 5.98242 100.02 4.00781 100.02 3.26953C99.3516 2.88281 98.2266 2.64258 96.6445 2.54883C96.5859 2.39648 96.5566 2.25586 96.5566 2.12695C96.5566 2.00977 96.5859 1.875 96.6445 1.72266ZM108.316 1.72266C110.543 1.51172 112.518 1.03125 114.24 0.28125C114.557 0.410156 114.762 0.568359 114.855 0.755859C114.855 14.0332 114.902 21.9785 114.996 24.5918C115.008 24.8379 115.078 25.0605 115.207 25.2598C115.348 25.4473 115.5 25.5996 115.664 25.7168C115.828 25.8223 116.051 25.9219 116.332 26.0156C116.613 26.0977 116.83 26.1562 116.982 26.1914C117.146 26.2148 117.363 26.2441 117.633 26.2793C117.703 26.4199 117.738 26.5664 117.738 26.7188C117.738 26.8711 117.703 27 117.633 27.1055C116.086 27.0352 114.586 27 113.133 27C111.703 27 110.215 27.0352 108.668 27.1055C108.621 26.918 108.598 26.7891 108.598 26.7188C108.598 26.6602 108.621 26.5137 108.668 26.2793C109.055 26.2324 109.365 26.1855 109.6 26.1387C109.846 26.0801 110.15 25.9922 110.514 25.875C110.889 25.7578 111.17 25.5938 111.357 25.3828C111.545 25.1602 111.645 24.8965 111.656 24.5918C111.703 23.4316 111.727 20.8359 111.727 16.8047C111.727 14.9414 111.721 12.4043 111.709 9.19336C111.697 5.98242 111.691 4.00781 111.691 3.26953C111.023 2.88281 109.898 2.64258 108.316 2.54883C108.258 2.39648 108.229 2.25586 108.229 2.12695C108.229 2.00977 108.258 1.875 108.316 1.72266ZM121.816 15.4512C121.816 14.1621 122.402 13.1016 123.574 12.2695C124.758 11.4375 126.152 11.0215 127.758 11.0215C129.727 11.0215 131.109 11.4141 131.906 12.1992C132.715 12.9844 133.119 14.3086 133.119 16.1719V23.4668C133.119 24.123 133.359 24.4512 133.84 24.4512C134.227 24.4512 134.719 23.9824 135.316 23.0449C135.738 23.0801 136.025 23.2676 136.178 23.6074C136.096 23.7246 135.955 23.9355 135.756 24.2402C135.557 24.5449 135.41 24.7617 135.316 24.8906C135.223 25.0195 135.076 25.2188 134.877 25.4883C134.678 25.7461 134.514 25.9395 134.385 26.0684C134.268 26.1973 134.104 26.3496 133.893 26.5254C133.693 26.7012 133.506 26.8359 133.33 26.9297C133.166 27.0117 132.973 27.082 132.75 27.1406C132.527 27.2109 132.305 27.2461 132.082 27.2461C131.496 27.2461 131.01 27.0352 130.623 26.6133C130.248 26.1914 130.025 25.541 129.955 24.6621C129.943 24.6738 129.762 24.8438 129.41 25.1719C129.059 25.5 128.812 25.7227 128.672 25.8398C128.543 25.9453 128.291 26.1387 127.916 26.4199C127.553 26.6895 127.242 26.8828 126.984 27C126.727 27.1172 126.404 27.2285 126.018 27.334C125.631 27.4512 125.25 27.5098 124.875 27.5098C124.277 27.5098 123.744 27.4277 123.275 27.2637C122.818 27.0996 122.461 26.9004 122.203 26.666C121.945 26.4316 121.734 26.1621 121.57 25.8574C121.406 25.541 121.295 25.2539 121.236 24.9961C121.189 24.7383 121.166 24.4805 121.166 24.2227C121.166 23.4375 121.295 22.7754 121.553 22.2363C121.822 21.6973 122.314 21.1934 123.029 20.7246C123.756 20.2559 124.646 19.8398 125.701 19.4766C126.756 19.1133 128.174 18.7031 129.955 18.2461V15.8027C129.955 14.6191 129.691 13.7344 129.164 13.1484C128.648 12.5625 127.951 12.2695 127.072 12.2695C126.287 12.2695 125.625 12.4277 125.086 12.7441C124.559 13.0488 124.236 13.4062 124.119 13.8164C125.268 13.9922 125.842 14.6191 125.842 15.6973C125.842 16.1895 125.666 16.623 125.314 16.998C124.963 17.373 124.471 17.5605 123.838 17.5605C123.311 17.5605 122.842 17.3789 122.432 17.0156C122.021 16.6406 121.816 16.1191 121.816 15.4512ZM129.955 23.0449V19.3711C128.877 19.6172 127.986 19.8867 127.283 20.1797C126.58 20.4609 126.041 20.7715 125.666 21.1113C125.303 21.4512 125.051 21.8027 124.91 22.166C124.77 22.5176 124.699 22.9277 124.699 23.3965C124.699 23.9824 124.869 24.4453 125.209 24.7852C125.561 25.1133 125.988 25.2773 126.492 25.2773C127.664 25.2773 128.818 24.5332 129.955 23.0449ZM138.234 1.72266C140.461 1.51172 142.436 1.03125 144.158 0.28125C144.475 0.410156 144.68 0.568359 144.773 0.755859V14.2559C145.934 13.2715 147.023 12.4863 148.043 11.9004C149.062 11.3145 150.1 11.0215 151.154 11.0215C152.479 11.0215 153.422 11.3965 153.984 12.1465C154.547 12.8965 154.84 14.0684 154.863 15.6621L155.004 24.5918C155.016 24.8965 155.104 25.1602 155.268 25.3828C155.443 25.5938 155.689 25.7578 156.006 25.875C156.322 25.9922 156.586 26.0801 156.797 26.1387C157.008 26.1855 157.283 26.2324 157.623 26.2793C157.682 26.5723 157.711 26.7305 157.711 26.7539C157.711 26.8125 157.682 26.9297 157.623 27.1055C156.111 27.0352 154.734 27 153.492 27C152.238 27 150.855 27.0352 149.344 27.1055C149.297 26.918 149.273 26.7773 149.273 26.6836C149.273 26.6016 149.297 26.4668 149.344 26.2793C149.648 26.2324 149.9 26.1855 150.1 26.1387C150.311 26.0801 150.545 25.9922 150.803 25.875C151.072 25.7578 151.271 25.5938 151.4 25.3828C151.541 25.1602 151.611 24.8965 151.611 24.5918L151.646 16.2422C151.646 14.1211 151.014 13.0605 149.748 13.0605C148.564 13.0605 146.906 13.8281 144.773 15.3633C144.82 20.2383 144.867 23.3145 144.914 24.5918C144.926 24.8379 144.996 25.0605 145.125 25.2598C145.266 25.4473 145.418 25.5996 145.582 25.7168C145.746 25.8223 145.969 25.9219 146.25 26.0156C146.531 26.0977 146.748 26.1562 146.9 26.1914C147.064 26.2148 147.281 26.2441 147.551 26.2793C147.621 26.4199 147.656 26.5664 147.656 26.7188C147.656 26.8711 147.621 27 147.551 27.1055C146.004 27.0352 144.504 27 143.051 27C141.621 27 140.133 27.0352 138.586 27.1055C138.539 26.918 138.516 26.7891 138.516 26.7188C138.516 26.6602 138.539 26.5137 138.586 26.2793C138.973 26.2324 139.283 26.1855 139.518 26.1387C139.764 26.0801 140.068 25.9922 140.432 25.875C140.807 25.7578 141.088 25.5938 141.275 25.3828C141.463 25.1602 141.562 24.8965 141.574 24.5918C141.621 23.4316 141.645 20.8359 141.645 16.8047C141.645 14.9414 141.639 12.4043 141.627 9.19336C141.615 5.98242 141.609 4.00781 141.609 3.26953C140.941 2.88281 139.816 2.64258 138.234 2.54883C138.176 2.39648 138.146 2.25586 138.146 2.12695C138.146 2.00977 138.176 1.875 138.234 1.72266ZM170.754 1.16016C172.031 1.20703 173.625 1.24219 175.535 1.26562C177.445 1.28906 179.689 1.30078 182.268 1.30078C184.846 1.30078 187.09 1.28906 189 1.26562C190.922 1.24219 192.527 1.20703 193.816 1.16016C193.887 1.66406 193.975 2.15039 194.08 2.61914C194.186 3.07617 194.361 3.58594 194.607 4.14844L195.135 5.34375L196.418 7.83984C196.336 8.02734 196.131 8.18555 195.803 8.31445C195.404 7.57617 194.918 6.87305 194.344 6.20508C193.77 5.53711 193.037 4.93359 192.146 4.39453C191.268 3.85547 190.189 3.4043 188.912 3.04102C187.646 2.67773 186.117 2.43164 184.324 2.30273C184.266 3.76758 184.219 5.42578 184.184 7.27734C184.16 9.11719 184.148 11.168 184.148 13.4297C184.148 15.7031 184.16 17.7656 184.184 19.6172C184.219 21.4688 184.266 23.127 184.324 24.5918C184.336 24.873 184.447 25.1133 184.658 25.3125C184.869 25.5 185.156 25.6582 185.52 25.7871C185.895 25.916 186.322 26.0215 186.803 26.1035C187.295 26.1738 187.822 26.2324 188.385 26.2793C188.432 26.4785 188.455 26.6367 188.455 26.7539C188.455 26.8594 188.432 26.9766 188.385 27.1055C186.416 27.0352 184.377 27 182.268 27C180.17 27 178.131 27.0352 176.15 27.1055C176.104 26.9766 176.08 26.8594 176.08 26.7539C176.08 26.6367 176.104 26.4785 176.15 26.2793L176.994 26.1914C177.299 26.1562 177.639 26.1094 178.014 26.0508C178.389 25.9805 178.734 25.8867 179.051 25.7695C179.379 25.6523 179.654 25.5059 179.877 25.3301C180.1 25.1543 180.211 24.9375 180.211 24.6797V24.5918C180.27 22.4473 180.316 20.4492 180.352 18.5977C180.387 16.7461 180.404 15.0234 180.404 13.4297C180.404 11.8477 180.387 10.1367 180.352 8.29688C180.316 6.44531 180.27 4.44727 180.211 2.30273C178.523 2.39648 177.053 2.625 175.799 2.98828C174.557 3.33984 173.479 3.78516 172.564 4.32422C171.65 4.85156 170.889 5.46094 170.279 6.15234C169.67 6.83203 169.166 7.55273 168.768 8.31445C168.439 8.18555 168.234 8.02734 168.152 7.83984L168.943 6.3457L169.312 5.58984C169.465 5.27344 169.617 4.95117 169.77 4.62305C169.922 4.29492 170.062 3.95508 170.191 3.60352C170.332 3.24023 170.449 2.85938 170.543 2.46094C170.637 2.05078 170.707 1.61719 170.754 1.16016ZM197.965 1.16016C200.496 1.25391 202.535 1.30078 204.082 1.30078C204.668 1.30078 205.611 1.27734 206.912 1.23047C208.213 1.18359 209.215 1.16016 209.918 1.16016C212.52 1.16016 214.564 1.81641 216.053 3.12891C217.553 4.44141 218.303 6.14648 218.303 8.24414C218.303 9.93164 217.805 11.4434 216.809 12.7793C215.812 14.1035 214.453 15.0527 212.73 15.627C213.516 17.0332 214.594 18.627 215.965 20.4082C217.289 22.1777 218.549 23.5664 219.744 24.5742C220.951 25.582 222.246 26.1504 223.629 26.2793C223.676 26.4668 223.699 26.6133 223.699 26.7188C223.699 26.8359 223.676 26.9648 223.629 27.1055C222.926 27.0703 222.176 27.0469 221.379 27.0352C220.582 27.0234 219.691 27.0176 218.707 27.0176C217.734 27.0176 216.984 27.0117 216.457 27C213.305 23.332 210.773 19.7227 208.863 16.1719C208.008 16.1719 207.023 16.0371 205.91 15.7676C205.91 18.041 205.975 20.9824 206.104 24.5918C206.115 24.8965 206.25 25.1602 206.508 25.3828C206.766 25.5938 207.135 25.7578 207.615 25.875C208.107 25.9922 208.518 26.0801 208.846 26.1387C209.186 26.1855 209.625 26.2324 210.164 26.2793C210.211 26.5137 210.234 26.6719 210.234 26.7539C210.234 26.8477 210.211 26.9648 210.164 27.1055C208.172 27.0352 206.133 27 204.047 27C201.938 27 199.898 27.0352 197.93 27.1055C197.883 26.9648 197.859 26.8477 197.859 26.7539C197.859 26.5547 197.883 26.3965 197.93 26.2793C198.281 26.2441 198.562 26.2148 198.773 26.1914C198.984 26.168 199.271 26.127 199.635 26.0684C200.01 26.0098 200.309 25.9453 200.531 25.875C200.766 25.793 201.006 25.6934 201.252 25.5762C201.498 25.459 201.68 25.3184 201.797 25.1543C201.926 24.9902 201.99 24.8027 201.99 24.5918C202.131 20.9238 202.201 17.2266 202.201 13.5C202.201 9.70312 202.143 6.42773 202.025 3.67383C202.014 3.36914 201.879 3.11133 201.621 2.90039C201.363 2.67773 200.988 2.50781 200.496 2.39062C200.016 2.27344 199.605 2.19141 199.266 2.14453C198.938 2.08594 198.504 2.0332 197.965 1.98633C197.918 1.77539 197.895 1.62891 197.895 1.54688C197.895 1.47656 197.918 1.34766 197.965 1.16016ZM206.139 2.37305H206.104C205.975 6.69727 205.91 10.7168 205.91 14.4316C206.73 14.7012 207.562 14.8359 208.406 14.8359C209.18 14.8359 209.871 14.707 210.48 14.4492C211.102 14.1797 211.611 13.8281 212.01 13.3945C212.408 12.9609 212.736 12.4512 212.994 11.8652C213.264 11.2793 213.451 10.6875 213.557 10.0898C213.674 9.49219 213.732 8.87695 213.732 8.24414C213.732 6.49805 213.252 5.07422 212.291 3.97266C211.342 2.85938 209.988 2.30273 208.23 2.30273C207.363 2.30273 206.666 2.32617 206.139 2.37305ZM237.779 0.896484C237.955 0.767578 238.143 0.685547 238.342 0.650391L247.957 24.6621C248.074 24.9551 248.268 25.207 248.537 25.418C248.807 25.6172 249.141 25.7754 249.539 25.8926C249.949 25.998 250.301 26.0801 250.594 26.1387C250.898 26.1855 251.268 26.2324 251.701 26.2793C251.748 26.4668 251.771 26.625 251.771 26.7539C251.771 26.8945 251.748 27.0234 251.701 27.1406C249.17 27.0469 247.277 27 246.023 27C244.664 27 242.695 27.0469 240.117 27.1406C240.07 27 240.047 26.8594 240.047 26.7188C240.047 26.5664 240.07 26.4199 240.117 26.2793C242.484 26.0215 243.668 25.5762 243.668 24.9434C243.668 24.7441 243.645 24.5391 243.598 24.3281L241.049 17.7891C240.275 17.7656 239.232 17.7539 237.92 17.7539C237.299 17.7539 235.688 17.7773 233.086 17.8242L230.396 24.6621V24.873C230.396 24.9902 230.414 25.1016 230.449 25.207C230.496 25.3125 230.566 25.4062 230.66 25.4883C230.766 25.5703 230.865 25.6406 230.959 25.6992C231.053 25.7578 231.182 25.8164 231.346 25.875C231.521 25.9219 231.668 25.9629 231.785 25.998C231.914 26.0215 232.084 26.0508 232.295 26.0859C232.518 26.1211 232.688 26.1504 232.805 26.1738C232.922 26.1855 233.092 26.2031 233.314 26.2266C233.549 26.25 233.713 26.2676 233.807 26.2793C233.854 26.4668 233.877 26.625 233.877 26.7539C233.877 26.8242 233.854 26.9531 233.807 27.1406C231.182 27.0469 229.705 27 229.377 27C228.744 27 227.115 27.0469 224.49 27.1406C224.443 27 224.42 26.8594 224.42 26.7188C224.42 26.5664 224.443 26.4199 224.49 26.2793C226.928 25.998 228.316 25.4004 228.656 24.4863L236.215 5.43164L235.828 4.39453C236.496 3.94922 236.959 3.46875 237.217 2.95312C237.486 2.4375 237.674 1.75195 237.779 0.896484ZM237.92 16.3828C238.998 16.3828 239.848 16.3711 240.469 16.3477L237.129 7.69922H237.059L233.701 16.3125C234.803 16.3594 236.209 16.3828 237.92 16.3828ZM253.863 1.19531C255.832 1.26562 257.883 1.30078 260.016 1.30078C261.023 1.30078 261.984 1.27734 262.898 1.23047C263.812 1.18359 264.281 1.16016 264.305 1.16016C264.938 1.16016 265.518 1.17773 266.045 1.21289C266.584 1.23633 267.188 1.29492 267.855 1.38867C268.535 1.48242 269.139 1.61133 269.666 1.77539C270.193 1.93945 270.721 2.16797 271.248 2.46094C271.787 2.75391 272.232 3.09961 272.584 3.49805C272.947 3.89648 273.24 4.38867 273.463 4.97461C273.686 5.56055 273.797 6.2168 273.797 6.94336C273.797 9.08789 272.514 10.6992 269.947 11.7773V11.918C271.869 12.2695 273.475 13.0664 274.764 14.3086C276.064 15.5508 276.715 17.1387 276.715 19.0723C276.715 20.1035 276.527 21.0352 276.152 21.8672C275.789 22.6875 275.32 23.3672 274.746 23.9062C274.172 24.4453 273.451 24.9141 272.584 25.3125C271.717 25.7109 270.873 26.0156 270.053 26.2266C269.232 26.4375 268.289 26.6074 267.223 26.7363C266.168 26.8535 265.266 26.9297 264.516 26.9648C263.766 26.9883 262.928 27 262.002 27C258.826 27 256.102 27.0352 253.828 27.1055C253.781 26.9648 253.758 26.8477 253.758 26.7539C253.758 26.6719 253.781 26.5137 253.828 26.2793C254.18 26.2441 254.461 26.2148 254.672 26.1914C254.883 26.168 255.17 26.127 255.533 26.0684C255.908 26.0098 256.207 25.9453 256.43 25.875C256.664 25.793 256.904 25.6934 257.15 25.5762C257.396 25.459 257.578 25.3184 257.695 25.1543C257.824 24.9902 257.889 24.8027 257.889 24.5918C258.029 20.9238 258.1 17.2266 258.1 13.5C258.1 9.70312 258.041 6.42773 257.924 3.67383C257.912 3.36914 257.777 3.11133 257.52 2.90039C257.273 2.68945 256.898 2.52539 256.395 2.4082C255.891 2.29102 255.486 2.21484 255.182 2.17969C254.877 2.13281 254.438 2.08008 253.863 2.02148C253.816 1.81055 253.793 1.66406 253.793 1.58203C253.793 1.51172 253.816 1.38281 253.863 1.19531ZM261.809 13.5V14.8008L262.002 25.8047C262.787 25.8047 263.484 25.793 264.094 25.7695C264.703 25.7344 265.371 25.6641 266.098 25.5586C266.824 25.4414 267.457 25.2891 267.996 25.1016C268.535 24.9141 269.074 24.6562 269.613 24.3281C270.152 23.9883 270.592 23.5898 270.932 23.1328C271.271 22.6758 271.547 22.1133 271.758 21.4453C271.969 20.7656 272.074 20.0039 272.074 19.1602C272.074 18.3398 271.939 17.6074 271.67 16.9629C271.4 16.3066 271.02 15.7617 270.527 15.3281C270.047 14.8828 269.455 14.5137 268.752 14.2207C268.061 13.9277 267.305 13.7168 266.484 13.5879C265.676 13.459 264.791 13.3945 263.83 13.3945C263.162 13.3945 262.488 13.4297 261.809 13.5ZM262.037 2.4082L261.809 12.4277C266.59 12.4277 268.98 10.5996 268.98 6.94336C268.98 5.34961 268.482 4.17773 267.486 3.42773C266.502 2.67773 265.189 2.30273 263.549 2.30273C263.186 2.30273 262.682 2.33789 262.037 2.4082ZM279.914 1.16016C282.539 1.25391 284.59 1.30078 286.066 1.30078C296.121 1.24219 301.688 1.19531 302.766 1.16016C302.918 2.33203 303.217 3.44531 303.662 4.5C304.107 5.54297 304.676 6.65625 305.367 7.83984C305.273 8.03906 305.068 8.19727 304.752 8.31445C304.33 7.51758 303.82 6.80859 303.223 6.1875C302.625 5.56641 301.869 4.98047 300.955 4.42969C300.053 3.87891 298.922 3.42773 297.562 3.07617C296.215 2.72461 294.674 2.49023 292.939 2.37305H288.088C287.936 7.33008 287.859 11.0625 287.859 13.5703H292.869C293.209 13.5703 293.525 13.5469 293.818 13.5C294.123 13.4414 294.404 13.3477 294.662 13.2188C294.92 13.0781 295.148 12.9492 295.348 12.832C295.559 12.7031 295.77 12.5156 295.98 12.2695C296.191 12.0117 296.367 11.8008 296.508 11.6367C296.648 11.4609 296.818 11.1973 297.018 10.8457C297.217 10.4941 297.369 10.2188 297.475 10.0195C297.58 9.82031 297.738 9.50977 297.949 9.08789C298.172 8.66602 298.342 8.34961 298.459 8.13867C298.822 8.2793 299.045 8.43164 299.127 8.5957C298.635 9.46289 298.219 10.4238 297.879 11.4785C297.539 12.5332 297.369 13.4121 297.369 14.1152C297.369 15.7793 297.955 17.6133 299.127 19.6172C299.033 19.8047 298.811 19.9629 298.459 20.0918C298.33 19.8574 298.148 19.5234 297.914 19.0898C297.691 18.6445 297.516 18.3047 297.387 18.0703C297.258 17.8359 297.082 17.5371 296.859 17.1738C296.637 16.8105 296.438 16.5293 296.262 16.3301C296.098 16.1309 295.881 15.9082 295.611 15.6621C295.354 15.416 295.096 15.2344 294.838 15.1172C294.58 14.9883 294.281 14.8828 293.941 14.8008C293.613 14.707 293.256 14.6602 292.869 14.6602H287.859C287.859 16.5234 287.924 20.2793 288.053 25.9277H293.66C295.395 25.8105 296.936 25.5762 298.283 25.2246C299.643 24.873 300.773 24.4219 301.676 23.8711C302.59 23.3203 303.346 22.7344 303.943 22.1133C304.541 21.4922 305.051 20.7832 305.473 19.9863C305.789 20.1035 305.994 20.2559 306.088 20.4434C306.029 20.5605 305.877 20.8418 305.631 21.2871C305.385 21.7324 305.221 22.0371 305.139 22.2012C305.057 22.3535 304.916 22.6289 304.717 23.0273C304.529 23.4141 304.389 23.7305 304.295 23.9766C304.201 24.2109 304.09 24.5098 303.961 24.873C303.844 25.2363 303.744 25.5938 303.662 25.9453C303.592 26.2852 303.533 26.6367 303.486 27H288.053C284.877 27 282.152 27.0352 279.879 27.1055C279.832 26.9648 279.809 26.8477 279.809 26.7539C279.809 26.6719 279.832 26.5137 279.879 26.2793C280.418 26.2324 280.852 26.1855 281.18 26.1387C281.52 26.0801 281.93 25.9922 282.41 25.875C282.902 25.7578 283.277 25.5938 283.535 25.3828C283.793 25.1602 283.928 24.8965 283.939 24.5918C284.08 20.9238 284.15 17.2266 284.15 13.5C284.15 9.70312 284.092 6.42773 283.975 3.67383C283.963 3.36914 283.828 3.11133 283.57 2.90039C283.312 2.67773 282.938 2.50781 282.445 2.39062C281.965 2.27344 281.555 2.19141 281.215 2.14453C280.887 2.08594 280.453 2.0332 279.914 1.98633C279.867 1.77539 279.844 1.62891 279.844 1.54688C279.844 1.47656 279.867 1.34766 279.914 1.16016ZM308.18 1.16016C310.805 1.25391 312.844 1.30078 314.297 1.30078C315.75 1.30078 317.789 1.25391 320.414 1.16016C320.461 1.34766 320.484 1.47656 320.484 1.54688C320.484 1.62891 320.461 1.77539 320.414 1.98633C319.875 2.0332 319.436 2.08594 319.096 2.14453C318.768 2.19141 318.357 2.27344 317.865 2.39062C317.385 2.50781 317.016 2.67773 316.758 2.90039C316.5 3.11133 316.365 3.36914 316.354 3.67383C316.201 7.6582 316.125 11.3672 316.125 14.8008C316.125 16.5703 316.189 20.2793 316.318 25.9277H321.75C323.473 25.8105 325.014 25.5586 326.373 25.1719C327.732 24.7852 328.863 24.293 329.766 23.6953C330.68 23.0859 331.43 22.459 332.016 21.8145C332.613 21.1582 333.129 20.4258 333.562 19.6172C333.867 19.7344 334.066 19.8926 334.16 20.0918C333.68 20.9824 333.305 21.7031 333.035 22.2539C332.777 22.8047 332.49 23.5312 332.174 24.4336C331.869 25.3242 331.67 26.1797 331.576 27H316.318C313.143 27 310.418 27.0352 308.145 27.1055C308.098 26.9648 308.074 26.8477 308.074 26.7539C308.074 26.6719 308.098 26.5137 308.145 26.2793C308.684 26.2324 309.117 26.1855 309.445 26.1387C309.785 26.0801 310.195 25.9922 310.676 25.875C311.168 25.7578 311.543 25.5938 311.801 25.3828C312.059 25.1602 312.193 24.8965 312.205 24.5918C312.346 20.9238 312.416 17.2266 312.416 13.5C312.416 9.70312 312.357 6.42773 312.24 3.67383C312.229 3.36914 312.094 3.11133 311.836 2.90039C311.578 2.67773 311.203 2.50781 310.711 2.39062C310.23 2.27344 309.82 2.19141 309.48 2.14453C309.152 2.08594 308.719 2.0332 308.18 1.98633C308.133 1.77539 308.109 1.62891 308.109 1.54688C308.109 1.42969 308.133 1.30078 308.18 1.16016ZM353.18 8.5957C352.734 6.45117 351.914 4.78711 350.719 3.60352C349.535 2.41992 348.111 1.82812 346.447 1.82812C344.818 1.82812 343.553 2.21484 342.65 2.98828C341.76 3.76172 341.314 4.79297 341.314 6.08203C341.314 6.79688 341.379 7.38867 341.508 7.85742C341.637 8.32617 341.9 8.7832 342.299 9.22852C342.697 9.66211 343.277 10.0488 344.039 10.3887C344.801 10.7168 345.797 11.0332 347.027 11.3379C347.695 11.502 348.275 11.6543 348.768 11.7949C349.271 11.9355 349.822 12.1289 350.42 12.375C351.029 12.6211 351.551 12.8848 351.984 13.166C352.43 13.4473 352.869 13.7988 353.303 14.2207C353.748 14.6309 354.105 15.0879 354.375 15.5918C354.656 16.0957 354.879 16.6934 355.043 17.3848C355.219 18.0645 355.307 18.8086 355.307 19.6172C355.307 20.6953 355.107 21.6914 354.709 22.6055C354.311 23.5078 353.789 24.2695 353.145 24.8906C352.5 25.5117 351.756 26.0391 350.912 26.4727C350.068 26.9062 349.213 27.2227 348.346 27.4219C347.479 27.6211 346.617 27.7207 345.762 27.7207C343.16 27.7207 340.389 27.0469 337.447 25.6992C337.506 24.4336 337.535 23.6543 337.535 23.3613C337.535 21.4512 337.377 19.5469 337.061 17.6484C337.189 17.5664 337.318 17.5254 337.447 17.5254C337.611 17.5254 337.758 17.5664 337.887 17.6484C338.133 19.1602 338.537 20.4961 339.1 21.6562C339.674 22.8164 340.33 23.7363 341.068 24.416C341.807 25.084 342.568 25.5879 343.354 25.9277C344.15 26.2559 344.953 26.4199 345.762 26.4199C347.602 26.4199 349.014 25.9453 349.998 24.9961C350.994 24.0352 351.492 22.7695 351.492 21.1992C351.492 19.6172 351.123 18.4277 350.385 17.6309C349.658 16.8223 348.264 16.166 346.201 15.6621C343.623 15.0176 341.607 14.0684 340.154 12.8145C338.713 11.5488 337.992 9.87891 337.992 7.80469C337.992 6.71484 338.168 5.74219 338.52 4.88672C338.883 4.01953 339.346 3.32812 339.908 2.8125C340.482 2.28516 341.15 1.85156 341.912 1.51172C342.674 1.16016 343.424 0.919922 344.162 0.791016C344.912 0.650391 345.674 0.580078 346.447 0.580078C348.768 0.580078 351.182 1.11914 353.689 2.19727C353.619 2.88867 353.584 3.60937 353.584 4.35938C353.584 6.11719 353.725 7.5293 354.006 8.5957C353.854 8.6543 353.725 8.68359 353.619 8.68359C353.502 8.68359 353.355 8.6543 353.18 8.5957ZM358.84 1.16016C361.465 1.25391 363.504 1.30078 364.957 1.30078C366.41 1.30078 368.449 1.25391 371.074 1.16016C371.121 1.34766 371.145 1.47656 371.145 1.54688C371.145 1.67578 371.121 1.82227 371.074 1.98633C370.535 2.0332 370.096 2.08594 369.756 2.14453C369.428 2.19141 369.018 2.27344 368.525 2.39062C368.045 2.50781 367.676 2.67773 367.418 2.90039C367.16 3.11133 367.025 3.36914 367.014 3.67383C366.861 7.6582 366.785 11.3672 366.785 14.8008C366.785 17.3086 366.85 20.5723 366.979 24.5918C366.99 24.8965 367.125 25.1602 367.383 25.3828C367.641 25.5938 368.01 25.7578 368.49 25.875C368.982 25.9922 369.393 26.0801 369.721 26.1387C370.061 26.1855 370.5 26.2324 371.039 26.2793C371.086 26.4199 371.109 26.5781 371.109 26.7539C371.109 26.8477 371.086 26.9648 371.039 27.1055C369.047 27.0352 367.008 27 364.922 27C362.812 27 360.773 27.0352 358.805 27.1055C358.758 26.9648 358.734 26.8477 358.734 26.7539C358.734 26.5547 358.758 26.3965 358.805 26.2793C359.156 26.2441 359.438 26.2148 359.648 26.1914C359.859 26.168 360.146 26.127 360.51 26.0684C360.885 26.0098 361.184 25.9453 361.406 25.875C361.641 25.793 361.881 25.6934 362.127 25.5762C362.373 25.459 362.555 25.3184 362.672 25.1543C362.801 24.9902 362.865 24.8027 362.865 24.5918C363.006 20.9238 363.076 17.2266 363.076 13.5C363.076 9.70312 363.018 6.42773 362.9 3.67383C362.889 3.36914 362.754 3.11133 362.496 2.90039C362.238 2.67773 361.863 2.50781 361.371 2.39062C360.891 2.27344 360.48 2.19141 360.141 2.14453C359.812 2.08594 359.379 2.0332 358.84 1.98633C358.793 1.77539 358.77 1.62891 358.77 1.54688C358.77 1.42969 358.793 1.30078 358.84 1.16016Z" fill="white"/>
</svg>
