<?xml version="1.0" standalone="no"?>
<!DOCTYPE svg PUBLIC "-//W3C//DTD SVG 20010904//EN"
 "http://www.w3.org/TR/2001/REC-SVG-20010904/DTD/svg10.dtd">
<svg version="1.0" xmlns="http://www.w3.org/2000/svg"
 width="512.000000pt" height="356.000000pt" viewBox="0 0 512.000000 356.000000"
 preserveAspectRatio="xMidYMid meet">

<g transform="translate(0.000000,356.000000) scale(0.100000,-0.100000)"
fill="#000000" stroke="none">
<path d="M416 3544 c-72 -17 -179 -73 -229 -119 -45 -41 -48 -73 -9 -114 55
-59 2108 -1894 2146 -1918 138 -88 333 -89 471 -1 38 24 2121 1887 2157 1930
43 50 3 107 -122 172 -133 70 28 66 -2275 65 -1759 -1 -2089 -3 -2139 -15z"/>
<path d="M50 3240 c-51 -99 -50 -70 -50 -1460 0 -1390 -1 -1361 50 -1460 l20
-40 28 29 c15 16 387 352 827 747 440 394 800 720 800 724 0 4 -360 329 -800
724 -440 395 -812 731 -827 747 l-28 29 -20 -40z"/>
<path d="M5020 3250 c-14 -16 -385 -352 -825 -746 -440 -395 -800 -721 -800
-724 0 -4 358 -327 795 -719 437 -392 810 -728 827 -747 l33 -34 20 40 c51 99
50 71 50 1460 0 1390 1 1361 -50 1460 -11 22 -21 40 -23 39 -1 0 -13 -13 -27
-29z"/>
<path d="M985 974 c-451 -405 -823 -741 -827 -748 -18 -27 -6 -56 40 -96 61
-54 125 -87 220 -111 73 -18 131 -19 2136 -19 1774 0 2071 2 2131 15 133 28
285 124 285 181 0 12 -10 34 -22 47 -13 14 -376 341 -808 727 -432 387 -795
712 -806 722 -21 19 -21 19 -240 -177 -245 -219 -299 -254 -442 -282 -71 -14
-94 -14 -168 -3 -148 22 -207 58 -458 285 -118 107 -217 195 -218 195 -2 0
-372 -331 -823 -736z"/>
</g>
</svg>
