<?xml version="1.0" standalone="no"?>
<!DOCTYPE svg PUBLIC "-//W3C//DTD SVG 20010904//EN"
 "http://www.w3.org/TR/2001/REC-SVG-20010904/DTD/svg10.dtd">
<svg version="1.0" xmlns="http://www.w3.org/2000/svg"
 width="512.000000pt" height="512.000000pt" viewBox="0 0 512.000000 512.000000"
 preserveAspectRatio="xMidYMid meet">

<g transform="translate(0.000000,512.000000) scale(0.100000,-0.100000)"
fill="#000000" stroke="none">
<path d="M692 4146 c-29 -7 -55 -15 -57 -18 -3 -2 364 -353 815 -779 595 -562
835 -783 877 -806 149 -82 312 -83 465 -1 45 24 255 216 885 807 l826 776 -44
15 c-39 13 -271 15 -1879 17 -1465 1 -1846 -1 -1888 -11z"/>
<path d="M361 3860 c-12 -27 -26 -73 -31 -101 -14 -75 -13 -2327 1 -2405 35
-190 193 -348 383 -383 84 -15 3608 -15 3692 0 193 35 351 195 384 389 8 46
10 409 8 1235 -3 1074 -5 1174 -20 1220 -36 104 47 170 -868 -690 -903 -849
-923 -866 -1097 -926 -93 -31 -105 -33 -243 -34 -109 0 -161 4 -210 18 -85 23
-212 84 -276 133 -28 21 -411 379 -850 794 -439 415 -810 765 -825 777 l-27
23 -21 -50z"/>
</g>
</svg>
