<?xml version="1.0" standalone="no"?>
<!DOCTYPE svg PUBLIC "-//W3C//DTD SVG 20010904//EN"
 "http://www.w3.org/TR/2001/REC-SVG-20010904/DTD/svg10.dtd">
<svg version="1.0" xmlns="http://www.w3.org/2000/svg"
 width="320.000000pt" height="320.000000pt" viewBox="0 0 320.000000 320.000000"
 preserveAspectRatio="xMidYMid meet">

<g transform="translate(0.000000,320.000000) scale(0.100000,-0.100000)"
fill="#000000" stroke="none">
<path d="M1450 3194 c-109 -13 -238 -40 -335 -71 -566 -180 -982 -655 -1091
-1248 -26 -139 -26 -411 0 -550 123 -669 632 -1178 1301 -1301 139 -26 411
-26 550 0 669 123 1178 632 1301 1301 26 139 26 411 0 550 -122 659 -618 1164
-1272 1295 -96 20 -371 34 -454 24z m1164 -940 l26 -27 0 -626 c-1 -661 1
-644 -47 -669 -31 -17 -1955 -17 -1986 0 -48 25 -46 8 -46 668 0 656 -1 642
44 668 15 8 282 11 1001 12 l981 0 27 -26z"/>
<path d="M1169 2170 l-386 -5 384 -305 c211 -168 391 -310 401 -317 15 -11 70
29 417 298 220 170 407 317 415 325 12 12 -40 14 -415 12 -237 -2 -604 -5
-816 -8z"/>
<path d="M2183 1868 c-194 -150 -352 -275 -352 -278 0 -3 158 -120 352 -261
l352 -255 3 268 c1 148 1 389 0 534 l-3 265 -352 -273z"/>
<path d="M660 1605 l0 -527 33 24 c17 14 171 127 342 253 171 125 311 229 313
230 1 1 -606 486 -675 538 -10 8 -13 -98 -13 -518z"/>
<path d="M1102 1280 c-178 -132 -335 -248 -348 -259 l-25 -20 43 -5 c24 -3
354 -8 733 -11 380 -3 758 -8 840 -11 l150 -5 -27 24 c-39 36 -715 527 -725
527 -4 0 -37 -23 -72 -50 -35 -28 -74 -50 -86 -50 -12 0 -51 22 -86 50 -35 27
-66 50 -69 50 -3 -1 -150 -108 -328 -240z"/>
</g>
</svg>
